<svg xmlns="http://www.w3.org/2000/svg" xmlns:xlink="http://www.w3.org/1999/xlink" width="2000" zoomAndPan="magnify" viewBox="0 0 1500 1499.999933" height="2000" preserveAspectRatio="xMidYMid meet" version="1.0"><defs><g/><clipPath id="596cd4f711"><rect x="0" width="1385" y="0" height="1129"/></clipPath></defs><g transform="matrix(1, 0, 0, 1, 58, 185)"><g clip-path="url(#596cd4f711)"><g fill="#000000" fill-opacity="1"><g transform="translate(0.0977383, 895.687328)"><g><path d="M 561.46875 -323.75 L 627.15625 -323.75 L 627.15625 -76.78125 C 596.9375 -50.257812 561.164062 -29.90625 519.84375 -15.71875 C 478.53125 -1.539062 435.054688 5.546875 389.421875 5.546875 C 324.671875 5.546875 266.394531 -8.632812 214.59375 -37 C 162.800781 -65.363281 122.101562 -104.675781 92.5 -154.9375 C 62.894531 -205.195312 48.09375 -261.46875 48.09375 -323.75 C 48.09375 -386.03125 62.894531 -442.300781 92.5 -492.5625 C 122.101562 -542.820312 162.800781 -582.132812 214.59375 -610.5 C 266.394531 -638.863281 324.976562 -653.046875 390.34375 -653.046875 C 439.675781 -653.046875 485 -645.179688 526.3125 -629.453125 C 567.632812 -613.734375 602.476562 -590.457031 630.84375 -559.625 L 588.296875 -516.15625 C 537.117188 -566.71875 472.0625 -592 393.125 -592 C 340.707031 -592 293.378906 -580.4375 251.140625 -557.3125 C 208.898438 -534.1875 175.753906 -502.117188 151.703125 -461.109375 C 127.648438 -420.097656 115.625 -374.3125 115.625 -323.75 C 115.625 -273.1875 127.648438 -227.550781 151.703125 -186.84375 C 175.753906 -146.144531 208.742188 -114.078125 250.671875 -90.640625 C 292.609375 -67.210938 339.785156 -55.5 392.203125 -55.5 C 458.796875 -55.5 515.21875 -72.148438 561.46875 -105.453125 Z M 561.46875 -323.75 "/></g></g></g><g fill="#000000" fill-opacity="1"><g transform="translate(715.121309, 895.687328)"><g><path d="M 547.59375 0 L 399.59375 -208.125 C 382.945312 -206.269531 365.679688 -205.34375 347.796875 -205.34375 L 173.90625 -205.34375 L 173.90625 0 L 105.453125 0 L 105.453125 -647.5 L 347.796875 -647.5 C 430.429688 -647.5 495.179688 -627.765625 542.046875 -588.296875 C 588.910156 -548.828125 612.34375 -494.5625 612.34375 -425.5 C 612.34375 -374.9375 599.546875 -332.234375 573.953125 -297.390625 C 548.367188 -262.546875 511.832031 -237.414062 464.34375 -222 L 622.53125 0 Z M 345.953125 -263.625 C 410.085938 -263.625 459.113281 -277.804688 493.03125 -306.171875 C 526.945312 -334.535156 543.90625 -374.3125 543.90625 -425.5 C 543.90625 -477.914062 526.945312 -518.148438 493.03125 -546.203125 C 459.113281 -574.265625 410.085938 -588.296875 345.953125 -588.296875 L 173.90625 -588.296875 L 173.90625 -263.625 Z M 345.953125 -263.625 "/></g></g></g></g></g></svg>